<svg xmlns="http://www.w3.org/2000/svg" viewBox="0 0 216 216"><path d="M119.673 17.385c.26-.011.508-.038.737-.086 1.498-.312 1.405-1.69 2.604-1.948 4.823-1.036 11.196.108 16.169.094 4.392-.012 7.767.405 11.809 1.409 3.655.908 5.818.417 9.269 2.467 1.854 1.102 4.485 1.942 6.169 3.078 1.347.91 2.617 3.588 3.754 4.803 3.688 3.941 10.46 9.036 12.473 14.083 1.485 3.726-1.636 10.732-3.521 14.034-1.217 2.131-3.606 2.976-4.76 5.281-1.093 2.181-1.516 5.41-1.687 7.834-.211 3.011-.035 8.641 3.56 9.833 4.074 1.35 7.38-3.817 9.986-5.847 1.811-1.41 1.645-2.185 4.793-.949 2.247.882 4.092 2.735 6.117 4.008 1.668 1.05 3.325 2.321 4.942 3.377 1.849 1.206 6.571 2.205 7.853 3.829 1.488 1.885-.583 7.695-.786 9.788-.379 3.887 0 7.979 0 11.89 0 10.01.458 19.214-9.976 23.229-5.6 2.154-11.07 4.248-16.303 6.865-2.771 1.386-9.304 2.232-10.823 4.04 2.76-.038 4.785 2.087 7.149 3.141 2.622 1.168 4.625 1.683 7.094 3.398 1.812 1.26 3.602 2.599 5.396 3.829 1.858 1.272 5.653 2.453 6.647 4.263.978 1.777-.554 4.692.554 6.657.847 1.504 4.118 2.581 5.094 4.056 3.884 5.868-6.979 3.583-10.164 7.755 1.009 1.39 1.153 3.21.673 5.002-5.533 3.92-10.551 5.61-17.812 5.596-7.734-.017-15.342-.092-22.834-.928-1.499-.167-3.178.005-4.689.021-2.953.029-4.289-.854-6.845-1.409-2.086-.454-4.355.017-6.386-.611-1.45-.449-2.458-2.02-3.76-2.559-4.733-1.955-7.988-1.909-11.47-6.344-1.197-1.521-1.963-3.545-3.275-5.04-1.393-1.587-3.127-.442-3.172-3.751-1.823 1.825-1.124 5.138-1.363 7.481-.358 3.523-1.016 7.444-1.611 11.074-.624 3.811-1.043 7.649-1.787 11.354-.423 2.11-.85 6.19-1.72 7.906-7.14 14.089-22.3 9.057-32.469.93-4.049-3.237-8.725-5.655-11.93-9.748-2.519-3.217-4.926-6.615-7.602-9.944-5.671-7.059-6.118-12.234-6.118-20.844 0-4.468-.041-8.449.932-12.773.612-2.719 1.52-3.332 2.793-5.548a38.302 38.302 0 0 0-.218-1.909c.286-.714.839-1.085 1.661-1.11.663-.902 2.319-1.764 3.208-2.976 1.04-1.417 1.948-4.397 4.041-4.994-6.164.318-12.335.119-18.496-.155-4.952-.221-11.575.628-16.263-1.122-6.952-2.596-14.808-12.371-18.273-18.592-2.39-4.29-1.976-8.819-1.979-13.572-.001-3.826-.135-7.685-.021-11.509.066-2.219.069-4.834.933-6.93.762-1.845 1.41-2.157 2.291-3.515 3.812-5.875 8.33-8.034 14.781-9.948.445-2.653-.455-5.606.05-8.227.832-4.317 4.407-7.904 6.25-11.597.934-1.872 1.522-5.505 3.083-7.249 2.047-2.287 5.287-3.612 7.747-5.843 2.764-2.506 4.799-2.637 8.254-4.088 2.899-1.217 4.147-2.549 7.363-2.715 6.726-.349 14.199-1.928 19.325 3.554 2.711 2.899 4.508 8.532 4.389 12.625 2.587.323 5.303-.059 7.889.271-.103 3.27.687 8.169 1.22 11.55 1.65-.635 2.769-2.413 2.717-4.307-.074-2.717 9.077-2.586 10.053-6.247.635-2.38-.296-2.512-1.62-4.557-2.293-3.545-3.136-7.146-1.607-11.782 1.464-4.44 5.698-7.165 9.792-8.601 2.199-.772 4.308-.688 6.736-.663.892.014 2.02.176 2.99.132zm-20.338 49.2c-2.641 1.001 5.71 9.173 6.111 9.674 4.399 5.501.969 10.239.583 16.108-.546 8.311 1.751 16.875 1.607 25.255-.557-3.165 1.72-7.168 1.765-10.501.061-4.393.18-8.862 1.375-13.13.786-2.808.923-4.409 1.366-7.217.295-1.874 2.01-3.521 1.951-5.437-.074-2.402-2.222-3.29-2.696-5.553-.621-2.974 1.569-5.284 1.596-8.365-1.812-1.15-3.544-2.691-5.747-2.963-2.836-.454-5.373 1.169-7.911 2.129zm-43.554 2.611c.145.588.308 1.196.471 1.794a15.574 15.574 0 0 1 3.027 2.601c.19-.118.562-.363.752-.48.453-1.387.934-2.764 1.431-4.132.409-.163 1.215-.499 1.623-.662a96.582 96.582 0 0 1-7.304.879zm66.018-.557c-.098 1.573.663 3.171 2.69 4.575 1.59 1.1 2.952.505 3.754 2.563.74 1.898-.752 6.059-1.096 8.027-1.453 8.321-4.94 15.79-5.946 24.126-.488 4.04-.65 6.714-3.215 10.01 4.176-.738 7.844-8.715 9.606-11.823 3.891-6.863 5.896-12.276 5.339-20.254-.132-1.896.655-3.22.833-4.936.224-2.148-.625-4.471.128-6.572.896-2.495 2.912-2.346 3.712-4.492 3.79-10.163-15.148-11.702-15.805-1.224zm28.914 10.942c-.608.357-1.246.902-1.909 1.663-2.363 2.71-3.84 5.191-6.685 7.528-2.801 2.301-4.641 4.39-6.276 7.699-.513 1.039-3.899 8.282-4.53 8.373 4.395-.638 6.686-5.252 9.522-8.104 1.53-1.538 3.498-2.124 5-3.402 1.75-1.489 2.445-3.936 4.452-5.266.842-.559 7.719-1.571 7.301-2.936-1.261-4.125-3.67-7.435-6.875-5.555zm-54.16 1.577c-.009.607-.018 1.831-.027 2.438.924-.082 1.857-.164 2.8-.227.997-.816 2.546-1.187 3.117-2.402-1.496-.462-3.018-.833-4.522-1.233a225.29 225.29 0 0 0-1.368 1.424z"/><path fill="#3F3C3B" d="M-249 679.71l1.26 1.54c.02 1.569.03 3.149.04 4.75h-1.3v-6.29z"/></svg>