<svg xmlns="http://www.w3.org/2000/svg" width="56.63" height="56.63" viewBox="0.629 2.385 56.63 56.63"><path d="M28.944 3.385c-15.004 0-27.167 12.163-27.167 27.167S13.94 57.718 28.944 57.718c15.004 0 27.166-12.162 27.166-27.166S43.948 3.385 28.944 3.385zm12.607 20.844c-.15.473-1.718 2.744-2.843 5.26s-2.586 6.295-4.657 8.781c-1.47 1.763-2.845 3.826-3.152 4.997-.307 1.172-.502 1.068-.563 1.527-.061.46-.448 1.959-1.649 1.477 0 0-.848-.806-1.494-2.32-.645-1.513-1.634-4.319-2.264-4.892-.631-.573-5.196-8.06-6.622-11.067-1.424-3.004-2.857-4.391-3.31-5.531-.452-1.14-.057-1.204.658-.104.714 1.099 2.72 3.067 5.318 4.806 0 0 1.879 1.452 3.697 4.395 1.819 2.943 2.025 5.064 2.318 6.903.294 1.84.716 4.468 1.062 4.949.347.483.911 1.201.561-.987-.351-2.189-.692-5.729-.868-6.822-.174-1.095-.439-3.027-.785-3.78-.344-.754-2.391-5.41-4.024-6.632-.802.038-2.556.588-3.396-1.297-.841-1.886.3-3.46 1.586-3.847 1.284-.385 3.081.181 3.441 2.413.357 2.233-.847 2.292-.847 2.292s2.729 3.875 3.764 6.404c1.034 2.526.323.621.252-1.793-.072-2.414.48-5.69.571-6.244s-.03-.76-.03-.76-2.235-.495-1.979-2.825c.256-2.33 2.521-2.199 3.018-2.189.496.011 2.378.831 1.968 3.322 0 0-.424 1.55-2.146 1.735-.151 1.012-.837 5.433-.532 10.144 0 0 .069.439.424-.156s2.435-5.555 4.237-7.188c-.3-.763-1.124-2.829.409-4.198 1.531-1.368 4.15-.71 4.282 1.515.132 2.223-1.532 3.613-3.664 2.921l-.408-.023s-5.361 6.336-5.018 13.825c.222 2.793.441 3.88.52 4.095.079.211.31.532.662-.916.352-1.448.202-5.196.619-6.79.42-1.594 2.358-4.642 3.458-5.627 1.098-.983 1.956-1.796 2.19-2.013s.39-.377.719-.564c.33-.187 1.393-1.12 1.78-1.497.389-.377.542-.267.836-.673.293-.407.827-.716 1.308-1.377.478-.659.538-1.12 1.118-1.706.42-.431-.379 1.583-.525 2.057z"/></svg>