<svg xmlns="http://www.w3.org/2000/svg" width="600" height="600" viewBox="100 0 600 600"><path d="M361.083-736.694c21.778-6.667 46.167-13.194 68.167-3.639 15.944 2.833 30.167 10.472 43.723 19 19 17.306 35.166 37.861 46.777 60.806 3.223 10.722 5.111 21.75 8.111 32.528 8 .111 16 .361 23.944 1.694 17.694-1.222 33.613 8.861 44.777 21.806 15.973 15.167 29.667 32.806 39.084 52.806 7.666 23.333 14.583 47.667 11.166 72.5-4.777 20.892-18.277 38.472-34.194 52.306-8.639 6.277-17.142 13.722-28 15.639-9.916 1.806-19.444 5.139-28.694 9.056-.167 21.777 12 40.944 14.861 62.194 3.889 17.473-1.831 35.167-8.833 51.027-5.806 10.611-14.056 19.64-20.806 29.667-14.834 11.75-29.473 24.111-47.861 29.944-11.723 5.275-23.917 10.167-34.167 18.114-12.722.33-26.194 1.47-38-4.336-29.25-10.417-54.25-32.39-67.667-60.476-2.5-6.583-5.083-13.111-7.167-19.806-11.417 19.694-29.028 34.781-47.278 47.917-13.556 10.361-31.361 9.361-47.472 9.197-15.917.167-32.25-.583-46.944-7.309-4.028-1.889-8.056-3.803-12.195-5.361-10.694-7.639-21.555-14.997-32.25-22.636-12.25-14.889-18.611-33.809-22.972-52.336-2.861-28 3.167-55.747 5.778-83.556a455.53 455.53 0 0 0 2.306-6.5c2.889-.777 5.75-1.583 8.611-2.361-8-.806-16.027-1.306-24.055-1.166a33.537 33.537 0 0 0-10.361-3.361l.083-2.694c-1.333.556-3.972 1.666-5.278 2.222l.028-2.861c-7.278-6.694-12.361-15.222-16.222-24.222-1.25-3.917-2.695-7.723-4.083-11.528-2.694-10.083-4.806-20.472-10.917-29.167a912.77 912.77 0 0 1 8.333-1.722 514.87 514.87 0 0 0-6.555-.361c-1.139-3.528-2.306-7-3.473-10.472-.472-5.111-.889-10.25-1-15.361l-2 .222c.028-4.75.028-9.472 0-14.167l2.167.167c.333-5.25.528-10.5.806-15.722 6.694-15.556 10.333-32.667 20.472-46.556 5.528-7.583 10.861-15.333 15.694-23.389 14.972-7.944 29.528-16.667 44.583-24.333 18.527-2.333 37.722-6.5 56.194-1.389 12.5 2.083 23.139 9.361 34.139 15.167 3.722-7.472 6.972-15.167 9.889-23 7.361-10.25 11.5-22.528 19.555-32.333 8.945-10.556 20.306-18.639 31.361-26.778 15.835-8.526 30.308-20.054 47.835-25.081zm-58.527 118.388c-.611 7.222 3.861 13.028 6.694 19.25 12 6.306 17.806 19.139 23.972 30.472 1.75 4.695 3.472 9.445 5.333 14.139.444 1.444 1.306 4.389 1.75 5.833 5.5 15 4.778 31.111 5.083 46.833.861 4.25 1.611 8.583 2.361 12.917 3.861.056 7.722.139 11.611.278-.5-6.361-1-12.694-2.778-18.805-2.472-18.333-4.333-36.778-7.583-54.973-3.611-10-6.417-20.277-8.917-30.583-2.528-5.111 1.111-8.833 4.278-12.25 0-3.556.027-7.056.055-10.556-5.555-3.528-10.861-8.25-17.611-9.083-8.693-1.388-16.471 3.584-24.248 6.528zm-133.5 8c.444 1.806.944 3.667 1.444 5.5a47.914 47.914 0 0 1 9.278 7.972c.583-.361 1.722-1.111 2.306-1.472a401.146 401.146 0 0 1 4.389-12.667c1.25-.5 3.722-1.528 4.972-2.028-7.445 1.168-14.917 2.112-22.389 2.695zm210.971-1.111c.195 1.278.556 3.889.75 5.194 3.806 4 7.473 8.139 11.14 12.278-.39 3.889-.806 7.778-1.278 11.694-2.306 11.139-.389 22.639-2.639 33.806-1.917 10-2.973 20.583.083 30.5 1.556 11.111-.75 22.806 3.444 33.472-2.389 1.917-4.722 3.888-7.055 5.861-.306 5.861-.778 11.723-1.25 17.611 1.36 4.139 2.833 8.25 4.36 12.389 3.167-2.527 6.5-4.806 9.694-7.25-3.222-27.75 8.723-54.055 8.584-81.639-.139-17 4.556-33.5 5.527-50.389 6.334-3.806 12.667-7.583 19.111-11.167-4.223-7.917-12.223-11.417-21.027-10.167a138.482 138.482 0 0 1-8.25-5.25c-7.165.224-14.304 1.141-21.194 3.057zm79 31.278c-7.019 8.316-7.086 18.105-12.116 26.633-3.331 5.65-10.353 9.167-14.441 14.917-9.989 14.044-18.645 34.719-18.006 52.058 18.092 6.242 21.767-14.989 25.236-26.911 2.414-8.289 4.853-9.017 9.297-16.214 2.511-4.066 5.967-25.877 13.226-25.675 6.944.194 14.194-.222 18.889-6.111-1.278-4.167-2.417-8.361-3.611-12.528a221.27 221.27 0 0 1-9.473-7.083c-3.028.303-6.028.609-9.001.914zm-164.999 6.5c-.028 1.861-.056 5.614-.083 7.472 2.833-.25 5.694-.5 8.583-.695 3.056-2.5 7.806-3.639 9.556-7.361-4.583-1.417-9.25-2.556-13.861-3.778a626.443 626.443 0 0 0-4.195 4.362z"/><path fill="#3F3C3B" d="M-591.667 1888.083l3.5 4.278c.055 4.357.083 8.747.111 13.194h-3.611v-17.472z"/><path d="M1025.404-613.141c-12.787 18.033-21.415 38.628-26.771 59.998-14.735 41.019 29.207 23.938 41.519 51.548.996 2.234-47.833 34.628-52.819 38.431-11.062 8.434-22.072 17.83-26.761 31.345-11.307 32.597-5.168 74.72 7.705 105.295 5.456 12.966 6.089 29.246 11.128 41.329 1.189 2.854 2.337 5.761 3.505 8.678 3.345 8.35 6.862 16.777 12.062 24.24 10.209 14.642 21.034 16.741 35.523 24.517 5.479 2.942 11.763 8.597 18.003 12.269 5.719 3.367 9.263 10.086 15.294 12.57 5.899 2.434 16.7 2.174 23.013 1.77 5.448-.35 11.905 1.16 17.137.551 6.789-.791 11.995-4.994 18.146-7.713 5.826-2.574 11.948-3.452 17.581-5.79 18.54-7.69 19.752-31.377 26.083-48.187 16.964 12.583 27.86 43.511 48.129 48.1 19.368 4.39 40.072 6.652 58.91 14.869 24.67 10.765 48.911 1.67 71.323-10.828 18.46-10.295 37.413-27.566 41.948-48.729 4.2-19.609-7.32-39.085-16.953-55.229-3.071-5.15-13.001-16.25-10.357-22.881 5.107-12.82 13.074 1.365 16.989-.152a12.205 12.205 0 0 1 8.37-.242c5.734 1.67 13.64 10.011 19.145 10.52 5.416.5 14.86-5.876 19.652-7.608 13.19-4.772 35.1-7.958 46.089-16.237 5.843-4.402 7.727-11.491 8.823-18.559-.045.298-.791-8.576-.756-9.205.246-4.519 2.602-10.787 3.105-15.118 2.256-19.345-1.059-34.492-7.434-51.723-1.299-3.503-2.294-7.758-2.887-11.424-4.543-6.7-2.831-17.732-7.276-26.883-4.556-9.376-10.33-18.417-16.954-26.473-7.999-9.728-16.724-17.055-29.058-20.279-25.234-6.596-84.608-10.15-101.759 15.549 13.038-17.552 20.062-40.781 20.597-62.601.574-23.395-1.042-44.222-9.802-66.381-9.5-24.031-27.257-32.808-51.107-39.712-22.954-6.645-43.027 3.935-65.082 7.062-19.466 2.761-40.339.678-60.018.678-8.389 0-18.021-1.342-26.275-.145-15.288 2.218-37.505 15.171-51.281 22.718-18.077 9.903-32.674 24.977-46.429 40.062zm148.852 308.291a618.01 618.01 0 0 1-5.861-1.508c-1.202-4.617-2.504-9.241-3.524-13.928 4.101-.309 7.429 3.269 11.107 4.699 1.591 2.424 3.214 4.789 4.824 7.133-1.632.892-4.913 2.713-6.546 3.604zm81.751-6.123c2.881 2.318 8.091 5.115 11.692 6.709 9.057 4.008 9.234.898 16.957.096 5.545-.579 9.518-4.308 15.73.596 4.547 3.59 6.967 10.164 5.477 15.49-1.745 6.244-10.983 11.422-16.421 13.812-10.62 4.671-15.204.433-22.854-7.285-6.073-6.127-13.941-9.021-20.052-14.891-8.542-8.207-15.695-20.051-21.449-30.297-6.702-11.934-12.663-25.256-20.792-36.275-5.562-7.537-13.112-13.611-9.345-24.16 6.848 7.383 9.766 17.623 16.97 24.831 9.197 9.201 14.22 19.032 21.541 29.65 5.912 8.573 14.438 15.204 22.546 21.724zm-80.109-140.13c1.142-.384 2.312-.664 3.544-.728 5.158-.26 9.956 2.793 14.888 3.727 10.297 1.951 20.702-2.691 30.479-2.075 8.118.513 16.654 1.836 24.044-2.335 4.84-2.73 4.136-7.188 9.332-10.091 4.312-2.412 7.392-1.9 12.103-2.959 9.432-2.122 17.553.658 21.189 9.99 3.238 8.31 6.862 20.711.214 27.906-8.706 9.418-19.271 3.527-28.898-.942-8.162-3.79-16.971.073-25.104-2.117-6.916-1.862-11.052-7.07-18.612-6.752-6.406.269-16.55 3.576-18.62 10.303-6.904 22.436 30.494 38.538 44.589 48.197 9.574 6.561 15.207 5.879 25.962 2.197 9.86-3.372 17.38-4.078 20.085 8.229 1.86 8.476-7.219 16.771-14.308 19.528-9.867 3.84-14.772-1.736-21.938-7.747-11.78-9.882-18.195-15.882-32.683-22.426-13.247-5.98-25.597-16.476-33.352-28.821-4.234-6.743-6.312-13.611-4.168-19.416 1.746-4.725 8.418-7.263 12.644-8.996-9.706 2.345-24.819-5.118-31.927-11.289 3.843-.033 7.051-2.206 10.537-3.383zM1644.42 190.172c-8.695-23.6-16.601-49-27.717-70.958-6.608-13.049-23.398-19.508-36.574-23.633-18.164-5.687-40.486-18.917-59.053-6.562-13.997 9.315-19.09 37.604-36.129 41.026-1.111-4.841 1.076-9.206 1.6-14.045.594-5.495-.047-11.475-.047-17.005 0-5.421 1.378-12.775.199-18-1.182-5.244-5.249-8.937-6.296-14.488-2.069-10.979-3.37-16.614-10.562-25.509-3.5-4.328-5.148-7.074-9.342-10.879-4.212-3.822-5.248-4.247-9.943-7.024-8.793-5.203-14.91-11.802-23.077-17.04-9.746-6.25-15.095-8.995-25.979-11.064-24.991-4.751-49.355-4.491-74.993-4.491-28.188 0-57.631 1.205-83.562 10.659-12.72 4.637-22.457 8.167-33.562 16.807-6.742 5.246-11.679 11.968-15.826 19.317-3.472 6.152-9.661 14.123-11.303 20.869-2.11 8.67.223 23.13 4.09 30.787 1.625 3.217 5.868 12.848 8 15.209 2.602 2.882 5.988 2.607 9.647 4.751 8.495 4.978 14.978 10.482 23.958 14.892 4.326 2.124 12.9 7.935 11 14.222-2.432 8.045-29.193 4.263-36.791 3.282-12.741-1.651-25.416-4.016-38.077-5.849-15.908-2.304-47.188 4.497-58.167 17.483-9.55 11.297-11.753 26.311-22.456 37.711-22.85 24.348-13.105 55.169 3.492 81.617 6.444 8.52 12.417 18.114 22.247 23.103 8.967 4.608 17.116 10.566 24.828 17.003 4.372 3.649-33.605 54.938-35.62 62.28-2.619 9.566 1.664 15.422 1.864 24.822.241 11.331-6.031 21.997-8.364 32.892-2.972 13.867-.678 25.145 1.22 38.983 2.533 18.438 12.172 25.078 29.625 31.434 2.02.735 5.911 2.508 8.011 2.566 2.489.069 6.217-2.545 7-2.52 6.637.188 14.423 1.217 21.364 2.134 15.473 2.038 31.813 10.008 47.425 8.735 7.75-.63 14.197-3.758 21.214-5.377 7.444-1.717 14.348-.667 22.858-5.239 6.095-3.275 10.53-5.328 16.684-7.853 4.511-1.855 15.575-2.845 18.592-5.006 3.033-2.17.563-7.581 3.619-9.608 2.8-1.861 7.5-1.375 10.73-2.794 6.772-2.973 9.937-8.489 17.836-8.312-.383 24.059-.788 46.261.178 68.703.337 7.85-4.291 9.524 2.786 16.936 3.354 3.52 6.358 3.853 11.242 5.467 14.809 4.905 27.5 8.986 43.116 8.211 41.187-2.061 72.681-17.164 106.437-34.646 18.697-9.681 19.416-15.942 25.705-36.62 1.892-6.222 29.986-75.475 23.559-79.488-2.539-1.584-5.041-3.184-7.556-4.762 7.892 1.553 15.717 3.408 23.353 5.872 21.572 6.961 42.211-31.002 51.15-45.02 12.277-19.238 22.375-38.011 29.131-60.247 11.977-39.448 32.23-83.026 17.236-123.734zm-346.565 79.131c-10.48-8.428-18.083-25.558-20.105-38.683-1.77-11.467 1.152-23.842-7.053-33.772-1.975-2.392-21.242-11.486-18.8-15.117 2.431-3.619 4.738-7.3 7.094-10.936a223.065 223.065 0 0 0 11.12-4.028c2.811 1.172 5.592 2.336 8.347 3.495 5.423 2.272 6.125 31.35 8 37.869 3.353 11.664 8.953 22.839 15.228 33.2 10.188 16.82 18.501 30.533 25.279 48.938 1.021 1.717 1.716 3.563 1.966 5.571a189.973 189.973 0 0 0-1.966-5.571c-5.717-9.625-21.809-15.097-29.11-20.966zm76.011 51.578c-5.981-2.603-12.326-7.85-15.857-9.946-11.227-6.668-18.646-11.129-21.395-24.006-3.287-15.404-7.33-30.325-9.203-46.05-1.622-13.617-10.598-23.031-6.564-36.967 1.817-6.289 11.736-20.264 5.442-27.225-4.95-5.48-9.917-10.933-15.039-16.233 6.344-6.35 15.014-7.375 23.075-3.619 3.17-.765 6.312-1.64 9.422-2.625 6.794 2.294 13.358 5.244 19.389 9.089-.556 1.167-1.664 3.558-2.23 4.752-4.8 2.723-9.514 5.617-14.225 8.511-4.55 2.797-.875 28.022-1.355 33.242-.786 8.631-5.667 18.197-4.184 26.809 2.089 12.072 8.458 24.764 12.353 36.43 5.985 17.931 16.873 35.079 31.197 47.545-2.739 2.627-6.696 2.09-10.826.293zm58.492-89.278c-2.64-1.061-5.3-2.133-8.012-3.158-2.196-3.28-6.411-5.75-7.003-9.822 4.801-.022 9.592.245 14.361.414a809.7 809.7 0 0 1 2.748 5.392c-.516 1.79-1.577 5.385-2.094 7.174zm-19.63-29.467c-14.827 10.258-15.658 33.903-18.527 50.344-2.101 12.025 1.642 24.256-.059 36.311-1.622 11.495-4.778 22.731-6.384 34.306-12.966-45.595-28.633-91.284 8.231-130.528 3.908-4.155 1.505-8.775-.531-12.964 1.018-3.368 2.022-6.741 3.015-10.117 6.341-1.761 12.791-4.736 19.491-3.572 8.722 1.197 14.722 8.217 21.306 13.292 6.858 5.289-24.967 21.836-26.542 22.928zm148.977 28.369a47.878 47.878 0 0 0-11.197 4.931c-.449-.514-1.324-1.564-1.777-2.078a411.683 411.683 0 0 0-.517-13.397c-1.053-.841-3.122-2.544-4.173-3.386 6.787 3.277 13.659 6.355 20.643 9.086a230.72 230.72 0 0 1-2.979 4.844z"/><path fill="none" d="M1216.5 144.5c7.837 1.797 18.529-2.512 27.331-1.793-1.745-4.663-16.089-7.619-21.221-10.149-9.593-4.729-16.909-10.424-24.548-18.118-13.873-13.972-23.462-27.651-11.061-46.345 8.261-12.452 10.941-22.958 24.498-30.139 10.947-5.799 23.547-11.18 35.488-13.947 9.896-2.293 17.998-7.299 27.529-10.046 14.508-4.181 34.098-3.481 49.498-3.462 19.968.024 38.624-4.132 58.413-4 13.762.092 26.185 1.447 39.53 3.509 20.754 3.206 42.711 15.224 58.986 28.381 6.298 5.091 15.078 7.885 18.096 15.608 2.56 6.549 2.4 17.8-.939 24.651-4.301 8.821-13.172 15.454-19.698 22.727-5.558 6.193-7.949 16.368-17.647 17.498-.695 1.147-.658 2.276.11 3.388 5.952-3.383 16.836-9.131 23.634-9.762"/><path d="M1770.239 1103.401c14.536-7.273 29.731-13.086 45.286-19.07 28.983-11.152 27.711-36.717 27.711-64.524 0-10.863-1.053-22.23 0-33.027.564-5.814 6.317-21.951 2.184-27.189-3.837-4.861-11.722-5.83-17.025-8.311-5.778-2.699-10.789-6.721-16.697-9.18-11.059-4.605-25.229-10.225-37.22-8.629-6.01.799-9.411 3.619-14.889 5.641-9.672 3.566-22.236 6.631-32.694 6.586 24.158-11.744 41.063-40.092 47.67-64.783 2.942-10.996 3.187-24.607.827-35.691-1.132-5.312-2.91-11.727-8-14.607-2.522-1.428-5.552-.242-7.823-1.42-4.356-2.258-8.688-8.418-12.289-11.84-7.982-7.59-14.415-18.621-22.763-25.26-9.408-7.48-23.354-11.395-33.871-17.514-16.149-9.395-30.145-17.529-49.064-19.863-48.213-5.945-86.177 11.592-105.795 57.125-3.807 8.836-7.96 22.275-19.831 18.166-8.572-2.967-14.983-12.021-23.773-15.668-9.146-3.795-19.022-5.463-28.244-9.057-21.673-8.447-40.595-6.076-61.609 2.75-9.597 4.029-15.25 4.395-22.928 11.355-6.833 6.199-15.83 9.881-21.52 16.232-4.339 4.842-5.969 14.934-8.563 20.135-5.122 10.26-15.053 20.221-17.361 32.213-1.405 7.281 1.095 15.482-.142 22.854-17.92 5.316-30.469 11.312-41.059 27.633-2.447 3.775-4.247 4.639-6.363 9.766-2.4 5.82-2.411 13.088-2.592 19.25-.316 10.623.053 21.342.059 31.967.005 13.203-1.143 25.787 5.5 37.706 15.366 27.597 42.801 57.562 76.507 58.517 20.985.594 81.12 8.062 94.836-12.066-4.845 5.048-10.497 5.595-16.022 9.053-9.199 5.759-13.908 16.122-20.258 24.999-11.72 16.384-17.779 47.702-15.611 68.061 2.463 23.114 30.699 41.326 48.945 52.027 22.395 13.135 42.773 23.4 69.107 27.756 17.655 2.92 56.297 10.061 70.823-.85 9.882-7.422 15.447-19.104 18.737-30.723 1.919-6.777.678-22.832 6.109-27.992 9.31-8.846 22.701 4.967 30.753 10.559 14.607 10.146 30.953 21.443 49.643 20.107 29.022-2.076 41.916-30.943 62.696-46.682 10.104-7.652 15.369-13.125 16.244-26.834.814-12.738-6.035-17.184-12.583-26.926-5.663-8.424-15.886-21.512-26.927-21.611 7.575-7.213 20.719-6.563 29.879-11.141zm-337.26-181.895a358.028 358.028 0 0 0-3.979 11.479c-.527.324-1.563 1.006-2.089 1.334a43.204 43.204 0 0 0-8.408-7.227 204.922 204.922 0 0 1-1.308-4.984v-.002.002a268.498 268.498 0 0 0 20.291-2.439c-1.132.448-3.375 1.382-4.507 1.837zm105.177 39.973c-2.623.176-5.209.402-7.778.631.022-1.689.05-5.09.072-6.771.934-.98 2.845-2.973 3.806-3.953 4.175 1.107 8.405 2.141 12.559 3.422-1.585 3.374-5.889 4.405-8.659 6.671zm35.597 9.455c-1.228 7.803-1.611 12.25-3.792 20.051-3.319 11.855-3.649 24.27-3.819 36.473-.101 7.304-4.046 15.763-4.952 23.327.053 1.949.08 3.898.047 5.842-.326-1.855-.289-3.818-.047-5.842-.574-21.405-5.805-43.153-4.417-64.312 1.075-16.303 10.601-29.463-1.616-44.744-1.114-1.391-24.312-24.092-16.976-26.871 7.048-2.668 14.095-7.176 21.973-5.92 6.119.758 10.931 5.035 15.964 8.23-.075 8.561-6.158 14.977-4.434 23.236 1.313 6.289 7.283 8.758 7.489 15.428.163 5.324-4.601 9.9-5.42 15.102zm16.233 86.575c7.125-9.154 7.578-16.582 8.931-27.809 2.797-23.155 12.483-43.901 16.52-67.017.953-5.463 5.098-17.023 3.044-22.293-2.23-5.717-6.014-4.064-10.43-7.121-5.631-3.896-7.745-8.338-7.473-12.707 1.822-29.109 54.434-24.83 43.902 3.4-2.222 5.961-7.822 5.547-10.311 12.477-2.095 5.836.267 12.289-.358 18.256-.494 4.768-2.678 8.445-2.312 13.711 1.545 22.164-4.024 37.199-14.833 56.262-4.891 8.634-15.079 30.792-26.68 32.841zm89.726-82.97c-5.572 3.695-7.503 10.492-12.364 14.629-4.175 3.549-9.642 5.178-13.889 9.449-7.878 7.92-14.242 20.736-26.45 22.512 1.75-.256 11.155-20.375 12.583-23.258 4.539-9.191 9.65-14.996 17.431-21.387 7.905-6.494 12.009-13.383 18.572-20.912 1.839-2.113 3.614-3.627 5.3-4.619 8.903-5.219 15.592 3.975 19.101 15.432 1.157 3.791-17.943 6.601-20.284 8.154zM-278.67-117.361c-9.416-20-23.111-37.639-39.083-52.805-15.028-17.419-30.48-19.192-51.547-22.964-12.934-2.317-23.092-7.475-29.72-19.031-18.342-31.969-17.311-64.858-53.3-83.489-14.855-7.692-31.77-10.5-47.851-12.367-13.969-1.622-28.458-9.075-41.458-10.628-3.069-.367-6.163-.797-9.28-1.214-19.854-2.653-44.16-1.743-62.637 7.533-11.678 5.863-34.199 26.327-39.362 38.474-1.447 3.404-.057 11.211-.534 15.087-.956 7.776-3.529 15.74-2.488 24.275 1.176 9.641 10.367 22.584 1.38 28.876-3.529 2.471-29.101 4.75-33.664 3.911-7.815-1.436-13.571-5.716-22.048-6.35-8.144-.609-16.837-.398-24.731 1.91-6.078 1.778-14.783 8.497-21.561 11.328-1.486.62-6.722 3.211-8.111 4.089-2.68-.811-5.125-.425-7.331 1.167a27.44 27.44 0 0 1-2.405 5.233c-8.175 6.344-14.505 12.525-23.059 18.603-9.339 6.639-20.389 12.355-27.694 20.833-7.747 8.992-16.961 15.02-20.145 26.333-4.603 16.353-4.867 34.797-4.872 52.123-.008 21.259-3.534 45.436 8.094 64.541 12.479 20.504 41.256 29.718 60.223 43.039 10.392 7.299 23.674 13.163 36.63 14.993 19.911 2.812 42.989.949 63.157.273-12.746 4.367-20.243 12.894-26.823 24.532-6.071 10.737-12.331 15.751-13.5 28.075-1.161 12.236-6.172 23.929-2.834 36.403 4.089 15.281 40.755 29.364 55.592 35.378 17.958 7.278 33.642 13.947 52.178 14.586 17.38.604 29.083-5.053 45.331-11.316 10.716-4.133 21.86-3.411 31.667-7.375 12.699-5.133 32.33-23.215 34.581-38.291-.562 18.951 9.835 39.644 14.046 56.907 3.297 13.515 10.187 15.462 21.441 22.917 24.957 16.517 33.045-1.21 50.865-17.152 13.885-12.422 28.963-23.533 42.675-36.15 11.233-10.336 19.888-22.549 27.994-35.42 13.692-21.741 16.277-40.494 15.456-65.846-.344-10.582-.089-26.553-2.502-37.158-.883-3.878-3.911-12.474-6.206-15.522-5.296-7.035-15.661-8.865-21.165-16.476 14.205 3.186 28.236 7.873 42.189 11.098 14.948 3.454 23.531 2.914 31.867-9.443 8.479-12.571 19.554-25.35 21.71-41.021 3.419-24.832-3.498-49.166-11.165-72.499zm-449.191-59.278c-1.527 4.194-3 8.417-4.389 12.667-.583.361-1.722 1.111-2.306 1.472a47.88 47.88 0 0 0-9.278-7.972c-.5-1.833-1-3.694-1.444-5.5 7.472-.583 14.944-1.528 22.389-2.694-1.25.499-3.722 1.527-4.972 2.027zm116.055 44.111c-2.889.194-5.75.444-8.583.694.028-1.858.056-5.611.083-7.472a627.036 627.036 0 0 1 4.194-4.361c4.611 1.222 9.278 2.361 13.861 3.778-1.749 3.722-6.499 4.861-9.555 7.361zm69.445 50.006c-3-5.847-9.133-5.316-13.666-9.989a31.207 31.207 0 0 1-2.925-8.983c-.07-.428-14.897-7.914-16.739-10.35-10.405-13.764-14.028-30.6-26.5-44.206-4.581-4.998-14.608-12.873-4.894-16.864a23.284 23.284 0 0 1 4.005-1.178c7.017-1.48 12.128 3.425 17.414 5.656 17.008 7.178 2.544 9.969 9.133 23.447 1.8 3.681 8.405 5.875 10.925 9.806 3.608 5.625 4.561 14.4 6.967 20.697 2.864 7.503 17.918 26.064 16.28 31.964zm39.367-86.048c-5.041 4.503-11.631 8.6-11.854 15.894-.296 9.664.731 19.352-.28 28.871-1.068 10.031-2.293 20.286-1.088 30.364 1.135 9.493.178 19.33 1.986 28.712a32.13 32.13 0 0 1 1.652 6.148 41.295 41.295 0 0 1-1.652-6.148c-1.717-8.914-10.779-14.78-14.311-22.728-3.086-6.945-2.682-14.914-4.913-22.08-3.591-11.533.017-23.416.29-35.107.354-15.121-7.534-20.969-13.279-33.678-3.314-7.33-3.523-20.034 5.683-23.552 9.311-3.558 36.324 7.948 41.266 16.467 4.631 7.986 1.254 12.592-3.5 16.837zm51.633 49.439c-2.645 1.091-5.121 2.876-7.218 6.319-3.878 6.369-5.618 12.582-9.868 18.668-2.99 4.282-5.07 8.261-7.496 13.138-3.125 6.281-6.971 12.488-8.625 19.376-2.336 9.728-2.074 8.69-9.085 15.579-5.446 5.352-7.773 11.019-13.957 16.1-6.099 5.013-10.522 10.061-15.078 16.827a446.193 446.193 0 0 0 15.634-30.724c5.85-12.712 13.799-25.06 18.728-38.125 2.518-6.674 2.511-14.056 5.737-20.462 1.96-3.89 14.377-12.272 14.701-14.564 1.5-10.583 5.666-20.611 12.583-28.806 2.972-.306 5.972-.611 9-.917a221.24 221.24 0 0 0 9.472 7.083c1.195 4.167 2.334 8.361 3.611 12.527-5.262 6.601-12.135 5.504-18.139 7.981z"/><g><path d="M466.155 44.622c-15.268-5.72-30.594-11.324-45.509-18.081-24.075-10.908-52.47-22.31-78.062-9.026-23.907 12.408-50.221 24.077-72.332 39.912-23.255 16.653-50.033 32.465-37.483 65.128 4.001 10.414 12.114 19.763 20.217 27.223 7.676 7.067 20.651 15.397 20.215 27.285-11.994-4.2-22.31-2.895-34.871-.526-13.874 2.617-27.839 4.813-39.439 13.658-11.68 8.909-16.328 26.177-21.395 39.34-1.255 3.26-2.46 6.363-3.643 9.177-8.386 19.998-14.213 46.674-15.492 68.326-.518 8.775.998 17.83 4.643 25.851 3.48 7.652 10.638 12.648 14.237 20.078 7.493 15.466 17.925 30.264 35.666 32.141 4.791.509 10.21-.704 11.229 4.753 1.309 7.01-12.44 21.713-13.834 29.855-1.207 7.041.214 14.09.73 21.148 1.288 17.634 6.963 41.595 21.907 52.961 9.609 7.31 21.529 10.995 32.684 15.204 10.498 3.96 20.923 10.501 32.065 12.342 21.702 3.586 31.529-15.392 43.419-29.666-.71 17.649 17.315 33.106 26.732 47.511 4.205 6.43 10.95 16.101 16.801 21.204 2.691 2.347 5.521 3.457 8.927 4.578 4.813 1.587 9.445 3.87 14.28 5.617 8.385 3.033 18.116.658 25.854-3.259 12.741-6.452 27.127-15.812 37.11-25.977 12.925-13.16 26.239-31.956 32.894-49.469 6.354-16.718 5.247-35.386 11.173-52.293 3.508-10.002 10.842-20.16-.76-28.264 6.449.266 10.44 8.744 16.18 12.011 3.361 1.913 7.763 2.199 11.508 3.265 10.723 3.05 14.502 4.304 23.987-1.954 20.557-13.562 30.743-35.345 47.997-51.292 15.436-14.268 29.802-37.63 31.266-58.997.506-7.398-3.367-11.871-6.693-18.122-5.051-9.49-9.711-19.643-13.693-29.628-5.311-13.314-10.992-26.326-17.644-38.557-4.83-8.879-7.615-20.02-16.037-26.415-6.62-5.026-16.19-7.701-23.926-10.562-14.112-5.215-24.507-2.857-38.319.794-9.246 2.443-19.953 5.112-29.354 8.106-9.035 2.876-15.57 8.228-22.339 14.488-4.015 3.714-7.095 8.45-10.859 12.013-3.566 3.378-8.347 4.193-11.725 7.671 3.388-2.078 3.378-5.356 5.71-7.777 2.433-2.527 5.241-2.963 7.941-5.478a36.365 36.365 0 0 0 4.156-6.595 28.784 28.784 0 0 1 6.27-3.115c2.841-2.394 5.372-5.219 8.253-7.543 18.074-14.572 56.229-12.075 65.76-36.835 4.604-11.954 1.25-28.497-.457-40.84-1.894-13.704-4.891-28.185-12.213-40.127-5.183-8.453-12.476-10.184-20.359-15.612-6.851-4.716-11.377-8.497-19.256-11.994-11.203-4.969-22.644-9.336-34.117-13.636zm-157.36 305.853c-5.207 1.953-8.651 5.932-13.224 8.096-5.327 2.521-11.779 1.562-17.002 4.848-2.192 1.38-11.815 16.378-14.563 13.963-8.308-7.302-13.5-16.422-5.73-21.933 1.475-1.042 3.419-1.959 5.899-2.705 8.826-2.661 16.182-3.497 24.645-7.677 8.335-4.114 15.156-6.211 24.614-6.541 2.973-.101 23.466-.372 24.345-1.748-6.127 9.594-19.328 10.076-28.984 13.697zm35.891-21.046c-20.139 1.851-34.903.823-52.961-8.897-4.291-2.308-8.214-1.867-12.413-3.264-5.253-1.742-9.785-6.18-15.491-6.633-6.776-.536-8.553 4.329-14.412 3.934-27.748-1.869-11.362-47.748 13.815-38.227 3.779 1.43 6.709 4.896 7.852 11.116.892 4.876-1.937 7.432 2.026 11.478 3.655 3.73 14.954 4.636 19.914 5.91 20.978 5.387 42.105 5.118 62.65 11.563 9.952 3.124 16.374 5.565 26.781 3.051-6.132 8.978-28.64 9.131-37.761 9.969zm-9.377-64.894c18.33 6.87 34.64 19.535 52.427 28.15 1.791.563 3.455 1.277 4.889 2.255a121.05 121.05 0 0 1-4.889-2.255c-6.708-2.113-15.323-2.007-21.508-4.7-10.33-4.494-20.898-8.93-32.135-10.642-7.387-1.125-11.275-2.496-18.303-4.425-4.688-1.286-10.348.983-14.762-1.179-5.536-2.708-5.344-8.665-10.131-12.16-6.292-4.588-14.002-1.907-21.233-5.098-.771-5.448-2.546-11.12-.857-16.554 1.931-7.106 8.402-11.325 13.324-16.242 5.126-5.113 15.409 23.021 16.154 24.488 8.211 16.086 22.901 13.07 37.024 18.362zm-13.951-25.159c-2.96 1.466-5.461 4.7-8.903 4.749.498-3.98 1.237-7.93 1.89-11.869 1.19-.431 3.59-1.282 4.775-1.696 1.424.621 4.292 1.891 5.722 2.51a332.407 332.407 0 0 0-3.484 6.306zm16.526-113.714a40.206 40.206 0 0 0 2.883 9.817c-.478.321-1.442.931-1.918 1.251a340.792 340.792 0 0 0-11.165-1.016c-.812.783-2.446 2.31-3.256 3.093l-.002.003h-.001l.003-.003a246.617 246.617 0 0 0 9.763-16.139c1.222.959 2.468 1.98 3.693 2.994z"/></g></svg>