<svg xmlns="http://www.w3.org/2000/svg" width="216" height="216" viewBox="0 0 216 216"><path d="M107.39 13.31c7.84-2.4 16.62-4.75 24.54-1.31 5.74 1.02 10.86 3.77 15.74 6.84 6.84 6.23 12.66 13.63 16.84 21.89 1.16 3.86 1.84 7.83 2.92 11.71 2.88.04 5.76.13 8.62.61 6.37-.44 12.101 3.19 16.12 7.85 5.75 5.46 10.68 11.81 14.07 19.01 2.76 8.4 5.25 17.16 4.02 26.1-1.72 7.521-6.58 13.85-12.31 18.83-3.11 2.26-6.171 4.94-10.08 5.63-3.57.65-7 1.85-10.33 3.26-.06 7.84 4.32 14.741 5.35 22.39 1.4 6.29-.659 12.66-3.18 18.37-2.09 3.82-5.06 7.07-7.49 10.68-5.34 4.23-10.61 8.68-17.23 10.78-4.22 1.899-8.61 3.66-12.3 6.521-4.58.119-9.43.529-13.68-1.561-10.53-3.75-19.53-11.66-24.36-21.771-.9-2.37-1.83-4.72-2.58-7.13-4.11 7.09-10.45 12.521-17.02 17.25-4.88 3.73-11.29 3.37-17.09 3.311-5.73.06-11.61-.21-16.9-2.631-1.45-.68-2.9-1.369-4.39-1.93-3.85-2.75-7.76-5.399-11.61-8.149-4.41-5.36-6.7-12.171-8.27-18.841-1.03-10.08 1.14-20.069 2.08-30.08.21-.58.63-1.75.83-2.34 1.04-.28 2.07-.57 3.1-.85-2.88-.29-5.77-.47-8.66-.42-1.18-.61-2.43-1.01-3.73-1.21l.03-.97c-.48.2-1.43.6-1.9.8l.01-1.03c-2.62-2.41-4.45-5.48-5.84-8.72-.45-1.41-.97-2.78-1.47-4.15-.97-3.63-1.73-7.37-3.93-10.5.75-.16 2.25-.47 3-.62-.59-.04-1.77-.1-2.36-.13-.41-1.27-.83-2.52-1.25-3.77-.17-1.84-.32-3.69-.36-5.53l-.72.08c.01-1.71.01-3.41 0-5.1l.78.06c.12-1.89.19-3.78.29-5.66 2.41-5.6 3.72-11.76 7.37-16.76 1.99-2.73 3.91-5.52 5.65-8.42 5.39-2.86 10.63-6 16.05-8.76 6.67-.84 13.58-2.34 20.23-.5 4.5.75 8.33 3.37 12.29 5.46 1.34-2.69 2.51-5.46 3.56-8.28 2.65-3.69 4.14-8.11 7.04-11.64 3.22-3.8 7.31-6.71 11.29-9.64 5.7-3.069 10.91-7.219 17.22-9.029zM86.32 55.93c-.22 2.6 1.39 4.69 2.41 6.93 4.32 2.27 6.41 6.89 8.63 10.97.63 1.69 1.25 3.4 1.92 5.09.16.52.47 1.58.63 2.1 1.98 5.4 1.72 11.2 1.83 16.86.31 1.53.58 3.09.85 4.65 1.39.02 2.78.05 4.18.1-.18-2.29-.36-4.57-1-6.77-.89-6.6-1.56-13.24-2.73-19.79-1.3-3.6-2.31-7.3-3.21-11.01-.91-1.84.4-3.18 1.54-4.41 0-1.28.01-2.54.02-3.8-2-1.27-3.91-2.97-6.34-3.27-3.13-.5-5.93 1.29-8.73 2.35zm-48.06 2.88c.16.65.34 1.32.52 1.98 1.23.81 2.35 1.77 3.34 2.87.21-.13.62-.4.83-.53.5-1.53 1.03-3.05 1.58-4.56.45-.18 1.34-.55 1.79-.73-2.68.42-5.37.76-8.06.97zm75.95-.4c.07.46.2 1.4.27 1.87 1.37 1.44 2.69 2.93 4.01 4.42-.14 1.4-.29 2.8-.46 4.21-.83 4.01-.14 8.15-.95 12.17-.69 3.6-1.07 7.41.03 10.98.56 4-.27 8.21 1.24 12.05-.86.69-1.7 1.4-2.54 2.11-.11 2.11-.28 4.22-.45 6.34.49 1.49 1.02 2.97 1.57 4.46 1.14-.91 2.34-1.73 3.49-2.61-1.16-9.99 3.14-19.46 3.09-29.39-.05-6.12 1.64-12.06 1.99-18.14 2.28-1.37 4.56-2.73 6.88-4.02-1.52-2.85-4.4-4.11-7.57-3.66-1.02-.6-2.01-1.23-2.97-1.89-2.58.08-5.15.41-7.63 1.1zm28.44 11.26c-2.49 2.95-3.99 6.56-4.53 10.37-2.99 1.66-5.5 4.36-6.19 7.8-1.04 5.74-1.1 11.69-3.13 17.22-.2 3.43-.38 6.9-1.49 10.19.83.5 1.67 1.02 2.51 1.54-.39 2.02-.87 4.02-1.39 6.01 1.45-.24 2.91-.48 4.38-.68-.28-1.2-.78-2.38-1.57-3.33.51-2.63 1.05-5.24 1.78-7.81.62-2.36 1.18-4.74 1.78-7.1 4.51-7.92 2.16-18.58 9-25.28 2.5.07 5.11-.08 6.8-2.2-.46-1.5-.87-3.01-1.3-4.51a79.56 79.56 0 0 1-3.41-2.55c-1.09.11-2.17.22-3.24.33zm-59.4 2.34c-.01.67-.02 2.021-.03 2.69 1.02-.09 2.05-.18 3.09-.25 1.1-.9 2.81-1.31 3.44-2.65-1.65-.51-3.33-.92-4.99-1.36-.38.39-1.14 1.18-1.51 1.57z"/><path fill="#3F3C3B" d="M-249 679.71l1.26 1.54c.02 1.569.03 3.149.04 4.75h-1.3v-6.29z"/></svg>