<svg xmlns="http://www.w3.org/2000/svg" width="35.181" height="37.593" viewBox="0 0 35.181 37.593"><path d="M17.733 37.062s-1.062-1.01-1.871-2.906c-.81-1.896-2.047-5.41-2.837-6.127-.789-.719-6.51-10.096-8.294-13.861-1.784-3.764-3.58-5.502-4.146-6.93-.567-1.429-.072-1.508.823-.132.895 1.376 3.407 3.842 6.662 6.021 0 0 2.354 1.818 4.633 5.503 2.276 3.686 2.534 6.344 2.902 8.646.368 2.305.896 5.596 1.329 6.201.435.605 1.142 1.506.702-1.236-.438-2.744-.866-7.176-1.086-8.547-.219-1.371-.551-3.792-.983-4.735-.432-.944-2.996-6.777-5.042-8.306-1.005.048-3.201.737-4.254-1.625s.375-4.335 1.985-4.818c1.61-.482 3.861.226 4.31 3.023s-1.059 2.87-1.059 2.87 3.418 4.853 4.714 8.021c1.295 3.167.406.779.316-2.245-.09-3.023.603-7.128.717-7.821.114-.693-.039-.95-.039-.95s-2.8-.621-2.479-3.541c.32-2.919 3.158-2.755 3.78-2.743.62.014 2.979 1.042 2.466 4.162 0 0-.533 1.942-2.689 2.174-.19 1.268-1.049 6.805-.667 12.707 0 0 .087.549.53-.197.444-.747 3.05-6.957 5.309-9.005-.376-.953-1.409-3.543.511-5.257 1.919-1.713 5.2-.889 5.365 1.897.164 2.787-1.919 4.526-4.59 3.66l-.511-.031s-6.717 7.937-6.285 17.317c.278 3.5.554 4.861.651 5.129.099.264.389.666.829-1.146.441-1.814.253-6.51.776-8.506.525-1.996 2.952-5.815 4.33-7.048 1.376-1.232 2.451-2.249 2.745-2.521.295-.272.487-.472.9-.706.412-.235 1.744-1.405 2.23-1.876.487-.472.678-.334 1.047-.843.368-.508 1.037-.897 1.637-1.724.599-.827.675-1.403 1.402-2.137.53-.538-.472 1.987-.656 2.579-.188.593-2.15 3.438-3.559 6.589-1.409 3.15-3.238 7.885-5.834 11-1.841 2.207-3.564 4.791-3.948 6.258-.385 1.467-.631 1.338-.707 1.914-.076.576-.562 2.453-2.065 1.849z"/></svg>