<svg xmlns="http://www.w3.org/2000/svg" viewBox="0 0 216 216"><path d="M114.113 22.353c2.538 1.301 6.042 3.7 7.182 6.509 1.034 2.549.088 5.395.606 7.992 3.958-1.992 10.319-1.954 13.624-4.634 2.001-1.623 2.424-4.71 3.96-6.719 1.615-2.112 4.023-3.822 6.129-5.409 7.55-5.686 18.038 2.07 24.812 5.994 9.062 5.251 17.328 12.637 25.472 19.06 6.959 5.488 9.093 14.614 8.978 23.462-.108 8.261 3.408 15.682 3.57 24.053.142 7.351 3.122 15.987-1.785 22.41-1.914 2.505-3.487 4.026-4.973 7.097-.535 1.11-1.212 3.993-2.077 4.535-1.084.68-5.674-.111-7.02-.11-7.646.005-15.114.669-22.504 1.03-1.065 7.618.78 15.453.78 23.108 0 3.34.521 7.276-.202 10.559-.911 4.127-4.292 6.788-6.757 10.042-3.238 4.273-6.905 8.329-10.736 12.303-4.341 4.503-7.593 9.605-12.705 13.462-7.631 5.756-17.764 5.553-26.89 5.553-9.367 0-17.324.449-25.882-3.558-5.746-2.691-8.592-5.636-9.91-11.434-.68-2.993-.888-6.157-.871-9.317.022-3.974 1.614-9.529.792-13.154-4.968-1.174-11.074 1.959-16.003 2.587-4.017.513-8.486-.049-12.527-.021-5.4.038-8.714-1.679-13.667-3.38-4.203-1.443-6.867-1.11-9.819-4.426-4.406-4.949-7.022-12.131-6.063-18.838 1.003-7.017 10.347-12.376 15.917-15.674-2.18-6.165-16.594-6.158-21.306-10.194-3.136-2.686-10.21-27.889-7.003-27.952 1.99-.039 3.878 1.217 5.899.714-1.595-3.7-6.915-6.358-7.778-10.531 2.004-.654 3.587 1.254 5.323 1.917 2.125.81 3.998.682 6.284.674 4.167-.014 8.362-.131 12.527 0 3.496.11 7.934.506 10.734 2.69 1.998 1.559 2.644 2.509 5.15 3.571 1.568.665 4.253 2.421 6.148 1.706-.663-6.147-9.326-7.021-11.768-12.665-.669-1.545-.806-3.519-1.694-4.948-.847-1.363-2.627-1.771-3.288-3.808-.841-2.592.101-6.946.086-9.79-.019-3.578.312-6.14 1.765-9.215.724-1.53 2.591-6.963 3.735-7.695 2.557-1.639 6.36.743 8.593 1.449 4.091 1.297 3.207.045 4.452-3.597 1.866-5.462 6.731-9.492 11.682-11.385 7.802-2.984 18.088-5.166 26.436-5.392 1.175-.031 2.455-.1 3.798-.176 6.331-.358 14.062-.881 18.794 1.545zm-7.267 31.834c-2.175.268-3.884 1.79-5.674 2.925.026 3.042 2.189 5.323 1.576 8.259-.468 2.234-2.589 3.112-2.662 5.483-.059 1.892 1.634 3.518 1.926 5.368.437 2.773.572 4.354 1.348 7.126 1.18 4.214 1.298 8.626 1.358 12.964.045 3.291 2.292 7.243 1.743 10.368-.143-8.273 2.126-16.729 1.587-24.935-.381-5.795-3.768-10.473.576-15.905.396-.495 8.641-8.563 6.034-9.552-2.506-.947-5.012-2.549-7.812-2.101zm43.603 3.811c.403.161 1.199.493 1.603.653.491 1.351.966 2.711 1.413 4.08.188.116.555.358.743.475a15.408 15.408 0 0 1 2.989-2.568c.161-.591.322-1.19.465-1.771a94.195 94.195 0 0 1-7.213-.869zm-73.576 1.528c.79 2.119 2.779 1.971 3.665 4.435.745 2.074-.094 4.368.127 6.489.175 1.694.952 3.001.822 4.874-.55 7.877 1.43 13.223 5.271 19.998 1.74 3.069 5.361 10.945 9.484 11.673-2.532-3.254-2.693-5.895-3.174-9.884-.994-8.231-4.437-15.605-5.871-23.821-.339-1.943-1.812-6.051-1.082-7.926.792-2.032 2.137-1.444 3.707-2.531 2.002-1.386 2.754-2.964 2.657-4.517-.649-10.345-19.348-8.825-15.606 1.21zM57.141 74.605c-.412 1.347 6.377 2.347 7.209 2.898 1.981 1.313 2.667 3.729 4.396 5.199 1.484 1.262 3.426 1.84 4.937 3.359 2.801 2.815 5.063 7.372 9.401 8.001-.622-.09-3.965-7.241-4.472-8.267-1.615-3.267-3.432-5.33-6.197-7.602-2.808-2.308-4.267-4.757-6.6-7.433-.655-.751-1.285-1.289-1.885-1.642-3.165-1.854-5.543 1.414-6.789 5.487zm58.913-5.333c-1.486.394-2.989.761-4.465 1.217.563 1.2 2.094 1.566 3.078 2.372.932.062 1.853.142 2.765.224-.009-.6-.018-1.808-.026-2.407a291.379 291.379 0 0 0-1.352-1.406z"/><path fill="#3F3C3B" d="M-249 679.71l1.26 1.54c.02 1.569.03 3.149.04 4.75h-1.3v-6.29z"/></svg>